<mxfile host="app.diagrams.net" modified="2024-06-07T04:12:47.755Z" agent="Mozilla/5.0 (Windows NT 10.0; Win64; x64) AppleWebKit/537.36 (KHTML, like Gecko) Chrome/125.0.0.0 Safari/537.36" etag="1znsSOTQryGbIlMAEtbR" version="24.5.1" type="device">
  <diagram id="C5RBs43oDa-KdzZeNtuy" name="Page-1">
    <mxGraphModel dx="1257" dy="669" grid="1" gridSize="10" guides="1" tooltips="1" connect="1" arrows="1" fold="1" page="1" pageScale="1" pageWidth="827" pageHeight="1169" math="0" shadow="0">
      <root>
        <mxCell id="WIyWlLk6GJQsqaUBKTNV-0" />
        <mxCell id="WIyWlLk6GJQsqaUBKTNV-1" parent="WIyWlLk6GJQsqaUBKTNV-0" />
        <mxCell id="O3eSGpDOSEKK-RNF7-H8-112" style="edgeStyle=none;rounded=0;orthogonalLoop=1;jettySize=auto;html=1;exitX=0.5;exitY=1;exitDx=0;exitDy=0;entryX=0.5;entryY=0;entryDx=0;entryDy=0;elbow=vertical;" edge="1" parent="WIyWlLk6GJQsqaUBKTNV-1" source="zkfFHV4jXpPFQw0GAbJ--17" target="O3eSGpDOSEKK-RNF7-H8-24">
          <mxGeometry relative="1" as="geometry" />
        </mxCell>
        <mxCell id="zkfFHV4jXpPFQw0GAbJ--17" value="Fecha  " style="swimlane;fontStyle=0;align=center;verticalAlign=top;childLayout=stackLayout;horizontal=1;startSize=26;horizontalStack=0;resizeParent=1;resizeLast=0;collapsible=1;marginBottom=0;rounded=0;shadow=0;strokeWidth=1;" parent="WIyWlLk6GJQsqaUBKTNV-1" vertex="1">
          <mxGeometry x="40" y="850" width="160" height="270" as="geometry">
            <mxRectangle x="550" y="140" width="160" height="26" as="alternateBounds" />
          </mxGeometry>
        </mxCell>
        <mxCell id="zkfFHV4jXpPFQw0GAbJ--19" value="dia&#xa;" style="text;align=left;verticalAlign=top;spacingLeft=4;spacingRight=4;overflow=hidden;rotatable=0;points=[[0,0.5],[1,0.5]];portConstraint=eastwest;rounded=0;shadow=0;html=0;" parent="zkfFHV4jXpPFQw0GAbJ--17" vertex="1">
          <mxGeometry y="26" width="160" height="26" as="geometry" />
        </mxCell>
        <mxCell id="zkfFHV4jXpPFQw0GAbJ--20" value="mes&#xa;" style="text;align=left;verticalAlign=top;spacingLeft=4;spacingRight=4;overflow=hidden;rotatable=0;points=[[0,0.5],[1,0.5]];portConstraint=eastwest;rounded=0;shadow=0;html=0;" parent="zkfFHV4jXpPFQw0GAbJ--17" vertex="1">
          <mxGeometry y="52" width="160" height="26" as="geometry" />
        </mxCell>
        <mxCell id="zkfFHV4jXpPFQw0GAbJ--21" value="aÃ±o&#xa;" style="text;align=left;verticalAlign=top;spacingLeft=4;spacingRight=4;overflow=hidden;rotatable=0;points=[[0,0.5],[1,0.5]];portConstraint=eastwest;rounded=0;shadow=0;html=0;" parent="zkfFHV4jXpPFQw0GAbJ--17" vertex="1">
          <mxGeometry y="78" width="160" height="26" as="geometry" />
        </mxCell>
        <mxCell id="zkfFHV4jXpPFQw0GAbJ--22" value="hora" style="text;align=left;verticalAlign=top;spacingLeft=4;spacingRight=4;overflow=hidden;rotatable=0;points=[[0,0.5],[1,0.5]];portConstraint=eastwest;rounded=0;shadow=0;html=0;" parent="zkfFHV4jXpPFQw0GAbJ--17" vertex="1">
          <mxGeometry y="104" width="160" height="26" as="geometry" />
        </mxCell>
        <mxCell id="O3eSGpDOSEKK-RNF7-H8-19" value="minuto&#xa;" style="text;align=left;verticalAlign=top;spacingLeft=4;spacingRight=4;overflow=hidden;rotatable=0;points=[[0,0.5],[1,0.5]];portConstraint=eastwest;rounded=0;shadow=0;html=0;" vertex="1" parent="zkfFHV4jXpPFQw0GAbJ--17">
          <mxGeometry y="130" width="160" height="26" as="geometry" />
        </mxCell>
        <mxCell id="O3eSGpDOSEKK-RNF7-H8-20" value="segundo" style="text;align=left;verticalAlign=top;spacingLeft=4;spacingRight=4;overflow=hidden;rotatable=0;points=[[0,0.5],[1,0.5]];portConstraint=eastwest;rounded=0;shadow=0;html=0;" vertex="1" parent="zkfFHV4jXpPFQw0GAbJ--17">
          <mxGeometry y="156" width="160" height="26" as="geometry" />
        </mxCell>
        <mxCell id="zkfFHV4jXpPFQw0GAbJ--23" value="" style="line;html=1;strokeWidth=1;align=left;verticalAlign=middle;spacingTop=-1;spacingLeft=3;spacingRight=3;rotatable=0;labelPosition=right;points=[];portConstraint=eastwest;" parent="zkfFHV4jXpPFQw0GAbJ--17" vertex="1">
          <mxGeometry y="182" width="160" height="28" as="geometry" />
        </mxCell>
        <mxCell id="zkfFHV4jXpPFQw0GAbJ--24" value="Fecha y hora&#xa;" style="text;align=left;verticalAlign=top;spacingLeft=4;spacingRight=4;overflow=hidden;rotatable=0;points=[[0,0.5],[1,0.5]];portConstraint=eastwest;" parent="zkfFHV4jXpPFQw0GAbJ--17" vertex="1">
          <mxGeometry y="210" width="160" height="20" as="geometry" />
        </mxCell>
        <mxCell id="O3eSGpDOSEKK-RNF7-H8-34" value="getters y setters&#xa;" style="text;align=left;verticalAlign=top;spacingLeft=4;spacingRight=4;overflow=hidden;rotatable=0;points=[[0,0.5],[1,0.5]];portConstraint=eastwest;" vertex="1" parent="zkfFHV4jXpPFQw0GAbJ--17">
          <mxGeometry y="230" width="160" height="20" as="geometry" />
        </mxCell>
        <mxCell id="O3eSGpDOSEKK-RNF7-H8-105" style="edgeStyle=none;rounded=0;orthogonalLoop=1;jettySize=auto;html=1;exitX=1;exitY=0.25;exitDx=0;exitDy=0;entryX=0;entryY=0.25;entryDx=0;entryDy=0;elbow=vertical;" edge="1" parent="WIyWlLk6GJQsqaUBKTNV-1" source="O3eSGpDOSEKK-RNF7-H8-0" target="O3eSGpDOSEKK-RNF7-H8-95">
          <mxGeometry relative="1" as="geometry" />
        </mxCell>
        <mxCell id="O3eSGpDOSEKK-RNF7-H8-106" style="edgeStyle=none;rounded=0;orthogonalLoop=1;jettySize=auto;html=1;exitX=0.5;exitY=1;exitDx=0;exitDy=0;entryX=0.5;entryY=0;entryDx=0;entryDy=0;elbow=vertical;" edge="1" parent="WIyWlLk6GJQsqaUBKTNV-1" source="O3eSGpDOSEKK-RNF7-H8-0" target="O3eSGpDOSEKK-RNF7-H8-92">
          <mxGeometry relative="1" as="geometry" />
        </mxCell>
        <mxCell id="O3eSGpDOSEKK-RNF7-H8-0" value="&lt;b&gt;clases Principales&amp;nbsp;&lt;/b&gt;" style="rounded=0;whiteSpace=wrap;html=1;" vertex="1" parent="WIyWlLk6GJQsqaUBKTNV-1">
          <mxGeometry x="50" y="50" width="120" height="30" as="geometry" />
        </mxCell>
        <mxCell id="O3eSGpDOSEKK-RNF7-H8-108" style="edgeStyle=none;rounded=0;orthogonalLoop=1;jettySize=auto;html=1;exitX=0.5;exitY=1;exitDx=0;exitDy=0;entryX=0.5;entryY=0;entryDx=0;entryDy=0;elbow=vertical;" edge="1" parent="WIyWlLk6GJQsqaUBKTNV-1" source="O3eSGpDOSEKK-RNF7-H8-7" target="O3eSGpDOSEKK-RNF7-H8-70">
          <mxGeometry relative="1" as="geometry" />
        </mxCell>
        <mxCell id="O3eSGpDOSEKK-RNF7-H8-7" value="AppManager" style="swimlane;fontStyle=0;align=center;verticalAlign=top;childLayout=stackLayout;horizontal=1;startSize=26;horizontalStack=0;resizeParent=1;resizeLast=0;collapsible=1;marginBottom=0;rounded=0;shadow=0;strokeWidth=1;" vertex="1" parent="WIyWlLk6GJQsqaUBKTNV-1">
          <mxGeometry x="40" y="180" width="160" height="200" as="geometry">
            <mxRectangle x="550" y="140" width="160" height="26" as="alternateBounds" />
          </mxGeometry>
        </mxCell>
        <mxCell id="O3eSGpDOSEKK-RNF7-H8-8" value="mascotaManager" style="text;align=left;verticalAlign=top;spacingLeft=4;spacingRight=4;overflow=hidden;rotatable=0;points=[[0,0.5],[1,0.5]];portConstraint=eastwest;" vertex="1" parent="O3eSGpDOSEKK-RNF7-H8-7">
          <mxGeometry y="26" width="160" height="26" as="geometry" />
        </mxCell>
        <mxCell id="O3eSGpDOSEKK-RNF7-H8-17" style="edgeStyle=orthogonalEdgeStyle;rounded=0;orthogonalLoop=1;jettySize=auto;html=1;exitX=0;exitY=0.5;exitDx=0;exitDy=0;" edge="1" parent="O3eSGpDOSEKK-RNF7-H8-7" source="O3eSGpDOSEKK-RNF7-H8-9">
          <mxGeometry relative="1" as="geometry">
            <mxPoint y="65" as="targetPoint" />
          </mxGeometry>
        </mxCell>
        <mxCell id="O3eSGpDOSEKK-RNF7-H8-9" value="clienteManager " style="text;align=left;verticalAlign=top;spacingLeft=4;spacingRight=4;overflow=hidden;rotatable=0;points=[[0,0.5],[1,0.5]];portConstraint=eastwest;rounded=0;shadow=0;html=0;" vertex="1" parent="O3eSGpDOSEKK-RNF7-H8-7">
          <mxGeometry y="52" width="160" height="26" as="geometry" />
        </mxCell>
        <mxCell id="O3eSGpDOSEKK-RNF7-H8-10" value="veterinarioManager " style="text;align=left;verticalAlign=top;spacingLeft=4;spacingRight=4;overflow=hidden;rotatable=0;points=[[0,0.5],[1,0.5]];portConstraint=eastwest;rounded=0;shadow=0;html=0;" vertex="1" parent="O3eSGpDOSEKK-RNF7-H8-7">
          <mxGeometry y="78" width="160" height="26" as="geometry" />
        </mxCell>
        <mxCell id="O3eSGpDOSEKK-RNF7-H8-11" value="consultaManager " style="text;align=left;verticalAlign=top;spacingLeft=4;spacingRight=4;overflow=hidden;rotatable=0;points=[[0,0.5],[1,0.5]];portConstraint=eastwest;rounded=0;shadow=0;html=0;" vertex="1" parent="O3eSGpDOSEKK-RNF7-H8-7">
          <mxGeometry y="104" width="160" height="26" as="geometry" />
        </mxCell>
        <mxCell id="O3eSGpDOSEKK-RNF7-H8-12" value="configuracion" style="text;align=left;verticalAlign=top;spacingLeft=4;spacingRight=4;overflow=hidden;rotatable=0;points=[[0,0.5],[1,0.5]];portConstraint=eastwest;rounded=0;shadow=0;html=0;" vertex="1" parent="O3eSGpDOSEKK-RNF7-H8-7">
          <mxGeometry y="130" width="160" height="26" as="geometry" />
        </mxCell>
        <mxCell id="O3eSGpDOSEKK-RNF7-H8-13" value="" style="line;html=1;strokeWidth=1;align=left;verticalAlign=middle;spacingTop=-1;spacingLeft=3;spacingRight=3;rotatable=0;labelPosition=right;points=[];portConstraint=eastwest;" vertex="1" parent="O3eSGpDOSEKK-RNF7-H8-7">
          <mxGeometry y="156" width="160" height="8" as="geometry" />
        </mxCell>
        <mxCell id="O3eSGpDOSEKK-RNF7-H8-14" value="Menu() " style="text;align=left;verticalAlign=top;spacingLeft=4;spacingRight=4;overflow=hidden;rotatable=0;points=[[0,0.5],[1,0.5]];portConstraint=eastwest;" vertex="1" parent="O3eSGpDOSEKK-RNF7-H8-7">
          <mxGeometry y="164" width="160" height="26" as="geometry" />
        </mxCell>
        <mxCell id="O3eSGpDOSEKK-RNF7-H8-24" value="Configuracion  " style="swimlane;fontStyle=0;align=center;verticalAlign=top;childLayout=stackLayout;horizontal=1;startSize=26;horizontalStack=0;resizeParent=1;resizeLast=0;collapsible=1;marginBottom=0;rounded=0;shadow=0;strokeWidth=1;" vertex="1" parent="WIyWlLk6GJQsqaUBKTNV-1">
          <mxGeometry x="40" y="1150" width="160" height="170" as="geometry">
            <mxRectangle x="550" y="140" width="160" height="26" as="alternateBounds" />
          </mxGeometry>
        </mxCell>
        <mxCell id="O3eSGpDOSEKK-RNF7-H8-25" value="Menu&#xa;" style="text;align=left;verticalAlign=top;spacingLeft=4;spacingRight=4;overflow=hidden;rotatable=0;points=[[0,0.5],[1,0.5]];portConstraint=eastwest;rounded=0;shadow=0;html=0;" vertex="1" parent="O3eSGpDOSEKK-RNF7-H8-24">
          <mxGeometry y="26" width="160" height="26" as="geometry" />
        </mxCell>
        <mxCell id="O3eSGpDOSEKK-RNF7-H8-26" value="MÃ©todos para copias deÂ &#xa;" style="text;align=left;verticalAlign=top;spacingLeft=4;spacingRight=4;overflow=hidden;rotatable=0;points=[[0,0.5],[1,0.5]];portConstraint=eastwest;rounded=0;shadow=0;html=0;" vertex="1" parent="O3eSGpDOSEKK-RNF7-H8-24">
          <mxGeometry y="52" width="160" height="26" as="geometry" />
        </mxCell>
        <mxCell id="O3eSGpDOSEKK-RNF7-H8-27" value="seguridad&#xa;" style="text;align=left;verticalAlign=top;spacingLeft=4;spacingRight=4;overflow=hidden;rotatable=0;points=[[0,0.5],[1,0.5]];portConstraint=eastwest;rounded=0;shadow=0;html=0;" vertex="1" parent="O3eSGpDOSEKK-RNF7-H8-24">
          <mxGeometry y="78" width="160" height="26" as="geometry" />
        </mxCell>
        <mxCell id="O3eSGpDOSEKK-RNF7-H8-28" value="restauraciÃ³n " style="text;align=left;verticalAlign=top;spacingLeft=4;spacingRight=4;overflow=hidden;rotatable=0;points=[[0,0.5],[1,0.5]];portConstraint=eastwest;rounded=0;shadow=0;html=0;" vertex="1" parent="O3eSGpDOSEKK-RNF7-H8-24">
          <mxGeometry y="104" width="160" height="26" as="geometry" />
        </mxCell>
        <mxCell id="O3eSGpDOSEKK-RNF7-H8-31" value="" style="line;html=1;strokeWidth=1;align=left;verticalAlign=middle;spacingTop=-1;spacingLeft=3;spacingRight=3;rotatable=0;labelPosition=right;points=[];portConstraint=eastwest;" vertex="1" parent="O3eSGpDOSEKK-RNF7-H8-24">
          <mxGeometry y="130" width="160" height="28" as="geometry" />
        </mxCell>
        <mxCell id="O3eSGpDOSEKK-RNF7-H8-110" style="edgeStyle=none;rounded=0;orthogonalLoop=1;jettySize=auto;html=1;exitX=0.5;exitY=1;exitDx=0;exitDy=0;entryX=0.5;entryY=0;entryDx=0;entryDy=0;elbow=vertical;" edge="1" parent="WIyWlLk6GJQsqaUBKTNV-1" source="O3eSGpDOSEKK-RNF7-H8-35" target="zkfFHV4jXpPFQw0GAbJ--17">
          <mxGeometry relative="1" as="geometry" />
        </mxCell>
        <mxCell id="O3eSGpDOSEKK-RNF7-H8-35" value="  Archivo   " style="swimlane;fontStyle=0;align=center;verticalAlign=top;childLayout=stackLayout;horizontal=1;startSize=26;horizontalStack=0;resizeParent=1;resizeLast=0;collapsible=1;marginBottom=0;rounded=0;shadow=0;strokeWidth=1;" vertex="1" parent="WIyWlLk6GJQsqaUBKTNV-1">
          <mxGeometry x="40" y="660" width="160" height="160" as="geometry">
            <mxRectangle x="550" y="140" width="160" height="26" as="alternateBounds" />
          </mxGeometry>
        </mxCell>
        <mxCell id="O3eSGpDOSEKK-RNF7-H8-36" value="_pFile&#xa;" style="text;align=left;verticalAlign=top;spacingLeft=4;spacingRight=4;overflow=hidden;rotatable=0;points=[[0,0.5],[1,0.5]];portConstraint=eastwest;rounded=0;shadow=0;html=0;" vertex="1" parent="O3eSGpDOSEKK-RNF7-H8-35">
          <mxGeometry y="26" width="160" height="26" as="geometry" />
        </mxCell>
        <mxCell id="O3eSGpDOSEKK-RNF7-H8-37" value="_fileNameÂ  Â  Â Â &#xa;" style="text;align=left;verticalAlign=top;spacingLeft=4;spacingRight=4;overflow=hidden;rotatable=0;points=[[0,0.5],[1,0.5]];portConstraint=eastwest;rounded=0;shadow=0;html=0;" vertex="1" parent="O3eSGpDOSEKK-RNF7-H8-35">
          <mxGeometry y="52" width="160" height="26" as="geometry" />
        </mxCell>
        <mxCell id="O3eSGpDOSEKK-RNF7-H8-42" value="" style="line;html=1;strokeWidth=1;align=left;verticalAlign=middle;spacingTop=-1;spacingLeft=3;spacingRight=3;rotatable=0;labelPosition=right;points=[];portConstraint=eastwest;" vertex="1" parent="O3eSGpDOSEKK-RNF7-H8-35">
          <mxGeometry y="78" width="160" height="28" as="geometry" />
        </mxCell>
        <mxCell id="O3eSGpDOSEKK-RNF7-H8-43" value="abrir();&#xa;" style="text;align=left;verticalAlign=top;spacingLeft=4;spacingRight=4;overflow=hidden;rotatable=0;points=[[0,0.5],[1,0.5]];portConstraint=eastwest;" vertex="1" parent="O3eSGpDOSEKK-RNF7-H8-35">
          <mxGeometry y="106" width="160" height="20" as="geometry" />
        </mxCell>
        <mxCell id="O3eSGpDOSEKK-RNF7-H8-44" value="cerrar()&#xa;" style="text;align=left;verticalAlign=top;spacingLeft=4;spacingRight=4;overflow=hidden;rotatable=0;points=[[0,0.5],[1,0.5]];portConstraint=eastwest;" vertex="1" parent="O3eSGpDOSEKK-RNF7-H8-35">
          <mxGeometry y="126" width="160" height="20" as="geometry" />
        </mxCell>
        <mxCell id="O3eSGpDOSEKK-RNF7-H8-164" style="edgeStyle=none;rounded=0;orthogonalLoop=1;jettySize=auto;html=1;exitX=0.5;exitY=1;exitDx=0;exitDy=0;entryX=0.5;entryY=0;entryDx=0;entryDy=0;elbow=vertical;" edge="1" parent="WIyWlLk6GJQsqaUBKTNV-1" source="O3eSGpDOSEKK-RNF7-H8-46" target="O3eSGpDOSEKK-RNF7-H8-135">
          <mxGeometry relative="1" as="geometry" />
        </mxCell>
        <mxCell id="O3eSGpDOSEKK-RNF7-H8-46" value="Mascota  " style="swimlane;fontStyle=0;align=center;verticalAlign=top;childLayout=stackLayout;horizontal=1;startSize=26;horizontalStack=0;resizeParent=1;resizeLast=0;collapsible=1;marginBottom=0;rounded=0;shadow=0;strokeWidth=1;" vertex="1" parent="WIyWlLk6GJQsqaUBKTNV-1">
          <mxGeometry x="630" y="180" width="160" height="260" as="geometry">
            <mxRectangle x="550" y="140" width="160" height="26" as="alternateBounds" />
          </mxGeometry>
        </mxCell>
        <mxCell id="O3eSGpDOSEKK-RNF7-H8-47" value="numeroMascotaÂ &#xa;" style="text;align=left;verticalAlign=top;spacingLeft=4;spacingRight=4;overflow=hidden;rotatable=0;points=[[0,0.5],[1,0.5]];portConstraint=eastwest;rounded=0;shadow=0;html=0;" vertex="1" parent="O3eSGpDOSEKK-RNF7-H8-46">
          <mxGeometry y="26" width="160" height="26" as="geometry" />
        </mxCell>
        <mxCell id="O3eSGpDOSEKK-RNF7-H8-48" value="nombreÂ  Â  Â  Â  Â &#xa;" style="text;align=left;verticalAlign=top;spacingLeft=4;spacingRight=4;overflow=hidden;rotatable=0;points=[[0,0.5],[1,0.5]];portConstraint=eastwest;rounded=0;shadow=0;html=0;" vertex="1" parent="O3eSGpDOSEKK-RNF7-H8-46">
          <mxGeometry y="52" width="160" height="26" as="geometry" />
        </mxCell>
        <mxCell id="O3eSGpDOSEKK-RNF7-H8-49" value="especieÂ  Â  Â  Â Â &#xa;" style="text;align=left;verticalAlign=top;spacingLeft=4;spacingRight=4;overflow=hidden;rotatable=0;points=[[0,0.5],[1,0.5]];portConstraint=eastwest;rounded=0;shadow=0;html=0;" vertex="1" parent="O3eSGpDOSEKK-RNF7-H8-46">
          <mxGeometry y="78" width="160" height="26" as="geometry" />
        </mxCell>
        <mxCell id="O3eSGpDOSEKK-RNF7-H8-50" value="aÃ±oNacimiento  " style="text;align=left;verticalAlign=top;spacingLeft=4;spacingRight=4;overflow=hidden;rotatable=0;points=[[0,0.5],[1,0.5]];portConstraint=eastwest;rounded=0;shadow=0;html=0;" vertex="1" parent="O3eSGpDOSEKK-RNF7-H8-46">
          <mxGeometry y="104" width="160" height="26" as="geometry" />
        </mxCell>
        <mxCell id="O3eSGpDOSEKK-RNF7-H8-51" value="numeroClienteÂ Â &#xa;" style="text;align=left;verticalAlign=top;spacingLeft=4;spacingRight=4;overflow=hidden;rotatable=0;points=[[0,0.5],[1,0.5]];portConstraint=eastwest;rounded=0;shadow=0;html=0;" vertex="1" parent="O3eSGpDOSEKK-RNF7-H8-46">
          <mxGeometry y="130" width="160" height="26" as="geometry" />
        </mxCell>
        <mxCell id="O3eSGpDOSEKK-RNF7-H8-52" value="estado         " style="text;align=left;verticalAlign=top;spacingLeft=4;spacingRight=4;overflow=hidden;rotatable=0;points=[[0,0.5],[1,0.5]];portConstraint=eastwest;rounded=0;shadow=0;html=0;" vertex="1" parent="O3eSGpDOSEKK-RNF7-H8-46">
          <mxGeometry y="156" width="160" height="26" as="geometry" />
        </mxCell>
        <mxCell id="O3eSGpDOSEKK-RNF7-H8-53" value="" style="line;html=1;strokeWidth=1;align=left;verticalAlign=middle;spacingTop=-1;spacingLeft=3;spacingRight=3;rotatable=0;labelPosition=right;points=[];portConstraint=eastwest;" vertex="1" parent="O3eSGpDOSEKK-RNF7-H8-46">
          <mxGeometry y="182" width="160" height="28" as="geometry" />
        </mxCell>
        <mxCell id="O3eSGpDOSEKK-RNF7-H8-54" value="Mascota()Â &#xa;" style="text;align=left;verticalAlign=top;spacingLeft=4;spacingRight=4;overflow=hidden;rotatable=0;points=[[0,0.5],[1,0.5]];portConstraint=eastwest;" vertex="1" parent="O3eSGpDOSEKK-RNF7-H8-46">
          <mxGeometry y="210" width="160" height="20" as="geometry" />
        </mxCell>
        <mxCell id="O3eSGpDOSEKK-RNF7-H8-55" value="Getters/Setters&#xa;" style="text;align=left;verticalAlign=top;spacingLeft=4;spacingRight=4;overflow=hidden;rotatable=0;points=[[0,0.5],[1,0.5]];portConstraint=eastwest;" vertex="1" parent="O3eSGpDOSEKK-RNF7-H8-46">
          <mxGeometry y="230" width="160" height="20" as="geometry" />
        </mxCell>
        <mxCell id="O3eSGpDOSEKK-RNF7-H8-57" value="Consulta   " style="swimlane;fontStyle=0;align=center;verticalAlign=top;childLayout=stackLayout;horizontal=1;startSize=26;horizontalStack=0;resizeParent=1;resizeLast=0;collapsible=1;marginBottom=0;rounded=0;shadow=0;strokeWidth=1;" vertex="1" parent="WIyWlLk6GJQsqaUBKTNV-1">
          <mxGeometry x="820" y="180" width="160" height="310" as="geometry">
            <mxRectangle x="550" y="140" width="160" height="26" as="alternateBounds" />
          </mxGeometry>
        </mxCell>
        <mxCell id="O3eSGpDOSEKK-RNF7-H8-58" value="numeroTurnoÂ  Â Â &#xa;" style="text;align=left;verticalAlign=top;spacingLeft=4;spacingRight=4;overflow=hidden;rotatable=0;points=[[0,0.5],[1,0.5]];portConstraint=eastwest;rounded=0;shadow=0;html=0;" vertex="1" parent="O3eSGpDOSEKK-RNF7-H8-57">
          <mxGeometry y="26" width="160" height="26" as="geometry" />
        </mxCell>
        <mxCell id="O3eSGpDOSEKK-RNF7-H8-59" value="fechaHoraÂ  Â  Â Â &#xa;" style="text;align=left;verticalAlign=top;spacingLeft=4;spacingRight=4;overflow=hidden;rotatable=0;points=[[0,0.5],[1,0.5]];portConstraint=eastwest;rounded=0;shadow=0;html=0;" vertex="1" parent="O3eSGpDOSEKK-RNF7-H8-57">
          <mxGeometry y="52" width="160" height="26" as="geometry" />
        </mxCell>
        <mxCell id="O3eSGpDOSEKK-RNF7-H8-60" value="veterinarioAsignadoÂ &#xa;" style="text;align=left;verticalAlign=top;spacingLeft=4;spacingRight=4;overflow=hidden;rotatable=0;points=[[0,0.5],[1,0.5]];portConstraint=eastwest;rounded=0;shadow=0;html=0;" vertex="1" parent="O3eSGpDOSEKK-RNF7-H8-57">
          <mxGeometry y="78" width="160" height="26" as="geometry" />
        </mxCell>
        <mxCell id="O3eSGpDOSEKK-RNF7-H8-61" value="mascotaInvolucrada    " style="text;align=left;verticalAlign=top;spacingLeft=4;spacingRight=4;overflow=hidden;rotatable=0;points=[[0,0.5],[1,0.5]];portConstraint=eastwest;rounded=0;shadow=0;html=0;" vertex="1" parent="O3eSGpDOSEKK-RNF7-H8-57">
          <mxGeometry y="104" width="160" height="26" as="geometry" />
        </mxCell>
        <mxCell id="O3eSGpDOSEKK-RNF7-H8-62" value="diagnosticoTratamientoÂ &#xa;" style="text;align=left;verticalAlign=top;spacingLeft=4;spacingRight=4;overflow=hidden;rotatable=0;points=[[0,0.5],[1,0.5]];portConstraint=eastwest;rounded=0;shadow=0;html=0;" vertex="1" parent="O3eSGpDOSEKK-RNF7-H8-57">
          <mxGeometry y="130" width="160" height="26" as="geometry" />
        </mxCell>
        <mxCell id="O3eSGpDOSEKK-RNF7-H8-63" value="importe                 " style="text;align=left;verticalAlign=top;spacingLeft=4;spacingRight=4;overflow=hidden;rotatable=0;points=[[0,0.5],[1,0.5]];portConstraint=eastwest;rounded=0;shadow=0;html=0;" vertex="1" parent="O3eSGpDOSEKK-RNF7-H8-57">
          <mxGeometry y="156" width="160" height="24" as="geometry" />
        </mxCell>
        <mxCell id="O3eSGpDOSEKK-RNF7-H8-66" value="estadoÂ &#xa;" style="text;align=left;verticalAlign=top;spacingLeft=4;spacingRight=4;overflow=hidden;rotatable=0;points=[[0,0.5],[1,0.5]];portConstraint=eastwest;" vertex="1" parent="O3eSGpDOSEKK-RNF7-H8-57">
          <mxGeometry y="180" width="160" height="20" as="geometry" />
        </mxCell>
        <mxCell id="O3eSGpDOSEKK-RNF7-H8-64" value="" style="line;html=1;strokeWidth=1;align=left;verticalAlign=middle;spacingTop=-1;spacingLeft=1;spacingRight=1;rotatable=1;labelPosition=right;points=[];portConstraint=eastwest;movable=1;resizable=1;deletable=1;editable=1;locked=0;connectable=1;" vertex="1" parent="O3eSGpDOSEKK-RNF7-H8-57">
          <mxGeometry y="200" width="160" height="50" as="geometry" />
        </mxCell>
        <mxCell id="O3eSGpDOSEKK-RNF7-H8-67" value="Consulta()          " style="text;align=left;verticalAlign=top;spacingLeft=4;spacingRight=4;overflow=hidden;rotatable=0;points=[[0,0.5],[1,0.5]];portConstraint=eastwest;rounded=0;shadow=0;html=0;" vertex="1" parent="O3eSGpDOSEKK-RNF7-H8-57">
          <mxGeometry y="250" width="160" height="20" as="geometry" />
        </mxCell>
        <mxCell id="O3eSGpDOSEKK-RNF7-H8-65" value="Getters/Setters&#xa;" style="text;align=left;verticalAlign=top;spacingLeft=4;spacingRight=4;overflow=hidden;rotatable=0;points=[[0,0.5],[1,0.5]];portConstraint=eastwest;" vertex="1" parent="O3eSGpDOSEKK-RNF7-H8-57">
          <mxGeometry y="270" width="160" height="20" as="geometry" />
        </mxCell>
        <mxCell id="O3eSGpDOSEKK-RNF7-H8-109" style="edgeStyle=none;rounded=0;orthogonalLoop=1;jettySize=auto;html=1;exitX=0.5;exitY=1;exitDx=0;exitDy=0;entryX=0.5;entryY=0;entryDx=0;entryDy=0;elbow=vertical;" edge="1" parent="WIyWlLk6GJQsqaUBKTNV-1" source="O3eSGpDOSEKK-RNF7-H8-70" target="O3eSGpDOSEKK-RNF7-H8-35">
          <mxGeometry relative="1" as="geometry" />
        </mxCell>
        <mxCell id="O3eSGpDOSEKK-RNF7-H8-70" value="Persona      " style="swimlane;fontStyle=0;align=center;verticalAlign=top;childLayout=stackLayout;horizontal=1;startSize=26;horizontalStack=0;resizeParent=1;resizeLast=0;collapsible=1;marginBottom=0;rounded=0;shadow=0;strokeWidth=1;" vertex="1" parent="WIyWlLk6GJQsqaUBKTNV-1">
          <mxGeometry x="40" y="410" width="160" height="220" as="geometry">
            <mxRectangle x="550" y="140" width="160" height="26" as="alternateBounds" />
          </mxGeometry>
        </mxCell>
        <mxCell id="O3eSGpDOSEKK-RNF7-H8-71" value="nombre         " style="text;align=left;verticalAlign=top;spacingLeft=4;spacingRight=4;overflow=hidden;rotatable=0;points=[[0,0.5],[1,0.5]];portConstraint=eastwest;" vertex="1" parent="O3eSGpDOSEKK-RNF7-H8-70">
          <mxGeometry y="26" width="160" height="26" as="geometry" />
        </mxCell>
        <mxCell id="O3eSGpDOSEKK-RNF7-H8-72" style="edgeStyle=orthogonalEdgeStyle;rounded=0;orthogonalLoop=1;jettySize=auto;html=1;exitX=0;exitY=0.5;exitDx=0;exitDy=0;" edge="1" parent="O3eSGpDOSEKK-RNF7-H8-70" source="O3eSGpDOSEKK-RNF7-H8-73">
          <mxGeometry relative="1" as="geometry">
            <mxPoint y="65" as="targetPoint" />
          </mxGeometry>
        </mxCell>
        <mxCell id="O3eSGpDOSEKK-RNF7-H8-73" value="telefono        " style="text;align=left;verticalAlign=top;spacingLeft=4;spacingRight=4;overflow=hidden;rotatable=0;points=[[0,0.5],[1,0.5]];portConstraint=eastwest;rounded=0;shadow=0;html=0;" vertex="1" parent="O3eSGpDOSEKK-RNF7-H8-70">
          <mxGeometry y="52" width="160" height="26" as="geometry" />
        </mxCell>
        <mxCell id="O3eSGpDOSEKK-RNF7-H8-74" value="email           " style="text;align=left;verticalAlign=top;spacingLeft=4;spacingRight=4;overflow=hidden;rotatable=0;points=[[0,0.5],[1,0.5]];portConstraint=eastwest;rounded=0;shadow=0;html=0;" vertex="1" parent="O3eSGpDOSEKK-RNF7-H8-70">
          <mxGeometry y="78" width="160" height="26" as="geometry" />
        </mxCell>
        <mxCell id="O3eSGpDOSEKK-RNF7-H8-75" value="direccion       " style="text;align=left;verticalAlign=top;spacingLeft=4;spacingRight=4;overflow=hidden;rotatable=0;points=[[0,0.5],[1,0.5]];portConstraint=eastwest;rounded=0;shadow=0;html=0;" vertex="1" parent="O3eSGpDOSEKK-RNF7-H8-70">
          <mxGeometry y="104" width="160" height="26" as="geometry" />
        </mxCell>
        <mxCell id="O3eSGpDOSEKK-RNF7-H8-76" value="estado         " style="text;align=left;verticalAlign=top;spacingLeft=4;spacingRight=4;overflow=hidden;rotatable=0;points=[[0,0.5],[1,0.5]];portConstraint=eastwest;rounded=0;shadow=0;html=0;" vertex="1" parent="O3eSGpDOSEKK-RNF7-H8-70">
          <mxGeometry y="130" width="160" height="26" as="geometry" />
        </mxCell>
        <mxCell id="O3eSGpDOSEKK-RNF7-H8-77" value="" style="line;html=1;strokeWidth=1;align=left;verticalAlign=middle;spacingTop=-1;spacingLeft=3;spacingRight=3;rotatable=0;labelPosition=right;points=[];portConstraint=eastwest;" vertex="1" parent="O3eSGpDOSEKK-RNF7-H8-70">
          <mxGeometry y="156" width="160" height="8" as="geometry" />
        </mxCell>
        <mxCell id="O3eSGpDOSEKK-RNF7-H8-78" value="Persona()   " style="text;align=left;verticalAlign=top;spacingLeft=4;spacingRight=4;overflow=hidden;rotatable=0;points=[[0,0.5],[1,0.5]];portConstraint=eastwest;" vertex="1" parent="O3eSGpDOSEKK-RNF7-H8-70">
          <mxGeometry y="164" width="160" height="26" as="geometry" />
        </mxCell>
        <mxCell id="O3eSGpDOSEKK-RNF7-H8-79" value="Getters/Setters   " style="text;align=left;verticalAlign=top;spacingLeft=4;spacingRight=4;overflow=hidden;rotatable=0;points=[[0,0.5],[1,0.5]];portConstraint=eastwest;" vertex="1" parent="O3eSGpDOSEKK-RNF7-H8-70">
          <mxGeometry y="190" width="160" height="26" as="geometry" />
        </mxCell>
        <mxCell id="O3eSGpDOSEKK-RNF7-H8-162" style="edgeStyle=none;rounded=0;orthogonalLoop=1;jettySize=auto;html=1;exitX=0.5;exitY=1;exitDx=0;exitDy=0;entryX=0.5;entryY=0;entryDx=0;entryDy=0;elbow=vertical;" edge="1" parent="WIyWlLk6GJQsqaUBKTNV-1" source="O3eSGpDOSEKK-RNF7-H8-80" target="O3eSGpDOSEKK-RNF7-H8-129">
          <mxGeometry relative="1" as="geometry" />
        </mxCell>
        <mxCell id="O3eSGpDOSEKK-RNF7-H8-80" value="  Veterinario       " style="swimlane;fontStyle=0;align=center;verticalAlign=top;childLayout=stackLayout;horizontal=1;startSize=26;horizontalStack=0;resizeParent=1;resizeLast=0;collapsible=1;marginBottom=0;rounded=0;shadow=0;strokeWidth=1;" vertex="1" parent="WIyWlLk6GJQsqaUBKTNV-1">
          <mxGeometry x="440" y="180" width="160" height="160" as="geometry">
            <mxRectangle x="550" y="140" width="160" height="26" as="alternateBounds" />
          </mxGeometry>
        </mxCell>
        <mxCell id="O3eSGpDOSEKK-RNF7-H8-81" value="legajoÂ  Â  Â  Â  Â &#xa;" style="text;align=left;verticalAlign=top;spacingLeft=4;spacingRight=4;overflow=hidden;rotatable=0;points=[[0,0.5],[1,0.5]];portConstraint=eastwest;rounded=0;shadow=0;html=0;" vertex="1" parent="O3eSGpDOSEKK-RNF7-H8-80">
          <mxGeometry y="26" width="160" height="26" as="geometry" />
        </mxCell>
        <mxCell id="O3eSGpDOSEKK-RNF7-H8-82" value="_fileNameÂ  Â  Â Â &#xa;" style="text;align=left;verticalAlign=top;spacingLeft=4;spacingRight=4;overflow=hidden;rotatable=0;points=[[0,0.5],[1,0.5]];portConstraint=eastwest;rounded=0;shadow=0;html=0;" vertex="1" parent="O3eSGpDOSEKK-RNF7-H8-80">
          <mxGeometry y="52" width="160" height="26" as="geometry" />
        </mxCell>
        <mxCell id="O3eSGpDOSEKK-RNF7-H8-83" value="" style="line;html=1;strokeWidth=1;align=left;verticalAlign=middle;spacingTop=-1;spacingLeft=3;spacingRight=3;rotatable=0;labelPosition=right;points=[];portConstraint=eastwest;" vertex="1" parent="O3eSGpDOSEKK-RNF7-H8-80">
          <mxGeometry y="78" width="160" height="28" as="geometry" />
        </mxCell>
        <mxCell id="O3eSGpDOSEKK-RNF7-H8-84" value="Veterinario()&#xa;" style="text;align=left;verticalAlign=top;spacingLeft=4;spacingRight=4;overflow=hidden;rotatable=0;points=[[0,0.5],[1,0.5]];portConstraint=eastwest;" vertex="1" parent="O3eSGpDOSEKK-RNF7-H8-80">
          <mxGeometry y="106" width="160" height="20" as="geometry" />
        </mxCell>
        <mxCell id="O3eSGpDOSEKK-RNF7-H8-85" value="Getters/Setters&#xa;" style="text;align=left;verticalAlign=top;spacingLeft=4;spacingRight=4;overflow=hidden;rotatable=0;points=[[0,0.5],[1,0.5]];portConstraint=eastwest;" vertex="1" parent="O3eSGpDOSEKK-RNF7-H8-80">
          <mxGeometry y="126" width="160" height="20" as="geometry" />
        </mxCell>
        <mxCell id="O3eSGpDOSEKK-RNF7-H8-86" value="  Cliente         " style="swimlane;fontStyle=0;align=center;verticalAlign=top;childLayout=stackLayout;horizontal=1;startSize=26;horizontalStack=0;resizeParent=1;resizeLast=0;collapsible=1;marginBottom=0;rounded=0;shadow=0;strokeWidth=1;" vertex="1" parent="WIyWlLk6GJQsqaUBKTNV-1">
          <mxGeometry x="254" y="180" width="160" height="160" as="geometry">
            <mxRectangle x="550" y="140" width="160" height="26" as="alternateBounds" />
          </mxGeometry>
        </mxCell>
        <mxCell id="O3eSGpDOSEKK-RNF7-H8-87" value="numeroClienteÂ Â &#xa;" style="text;align=left;verticalAlign=top;spacingLeft=4;spacingRight=4;overflow=hidden;rotatable=0;points=[[0,0.5],[1,0.5]];portConstraint=eastwest;rounded=0;shadow=0;html=0;" vertex="1" parent="O3eSGpDOSEKK-RNF7-H8-86">
          <mxGeometry y="26" width="160" height="26" as="geometry" />
        </mxCell>
        <mxCell id="O3eSGpDOSEKK-RNF7-H8-88" value="estadoÂ  Â  Â  Â  Â &#xa;" style="text;align=left;verticalAlign=top;spacingLeft=4;spacingRight=4;overflow=hidden;rotatable=0;points=[[0,0.5],[1,0.5]];portConstraint=eastwest;rounded=0;shadow=0;html=0;" vertex="1" parent="O3eSGpDOSEKK-RNF7-H8-86">
          <mxGeometry y="52" width="160" height="26" as="geometry" />
        </mxCell>
        <mxCell id="O3eSGpDOSEKK-RNF7-H8-89" value="" style="line;html=1;strokeWidth=1;align=left;verticalAlign=middle;spacingTop=-1;spacingLeft=3;spacingRight=3;rotatable=0;labelPosition=right;points=[];portConstraint=eastwest;" vertex="1" parent="O3eSGpDOSEKK-RNF7-H8-86">
          <mxGeometry y="78" width="160" height="28" as="geometry" />
        </mxCell>
        <mxCell id="O3eSGpDOSEKK-RNF7-H8-90" value="Cliente()Â &#xa;" style="text;align=left;verticalAlign=top;spacingLeft=4;spacingRight=4;overflow=hidden;rotatable=0;points=[[0,0.5],[1,0.5]];portConstraint=eastwest;" vertex="1" parent="O3eSGpDOSEKK-RNF7-H8-86">
          <mxGeometry y="106" width="160" height="20" as="geometry" />
        </mxCell>
        <mxCell id="O3eSGpDOSEKK-RNF7-H8-91" value="Getters/Setters&#xa;" style="text;align=left;verticalAlign=top;spacingLeft=4;spacingRight=4;overflow=hidden;rotatable=0;points=[[0,0.5],[1,0.5]];portConstraint=eastwest;" vertex="1" parent="O3eSGpDOSEKK-RNF7-H8-86">
          <mxGeometry y="126" width="160" height="20" as="geometry" />
        </mxCell>
        <mxCell id="O3eSGpDOSEKK-RNF7-H8-92" value="&lt;b&gt;no poseen manager/archivos&lt;/b&gt;" style="rounded=0;whiteSpace=wrap;html=1;" vertex="1" parent="WIyWlLk6GJQsqaUBKTNV-1">
          <mxGeometry x="50" y="110" width="120" height="40" as="geometry" />
        </mxCell>
        <mxCell id="O3eSGpDOSEKK-RNF7-H8-117" style="edgeStyle=orthogonalEdgeStyle;rounded=0;orthogonalLoop=1;jettySize=auto;html=1;exitX=0.5;exitY=1;exitDx=0;exitDy=0;entryX=0.75;entryY=0;entryDx=0;entryDy=0;elbow=vertical;" edge="1" parent="WIyWlLk6GJQsqaUBKTNV-1" source="O3eSGpDOSEKK-RNF7-H8-95" target="O3eSGpDOSEKK-RNF7-H8-86">
          <mxGeometry relative="1" as="geometry" />
        </mxCell>
        <mxCell id="O3eSGpDOSEKK-RNF7-H8-118" style="edgeStyle=orthogonalEdgeStyle;rounded=0;orthogonalLoop=1;jettySize=auto;html=1;exitX=0.5;exitY=1;exitDx=0;exitDy=0;entryX=0.75;entryY=0;entryDx=0;entryDy=0;elbow=vertical;" edge="1" parent="WIyWlLk6GJQsqaUBKTNV-1" source="O3eSGpDOSEKK-RNF7-H8-95" target="O3eSGpDOSEKK-RNF7-H8-80">
          <mxGeometry relative="1" as="geometry" />
        </mxCell>
        <mxCell id="O3eSGpDOSEKK-RNF7-H8-120" style="edgeStyle=orthogonalEdgeStyle;rounded=0;orthogonalLoop=1;jettySize=auto;html=1;exitX=0.5;exitY=1;exitDx=0;exitDy=0;entryX=0.5;entryY=0;entryDx=0;entryDy=0;elbow=vertical;" edge="1" parent="WIyWlLk6GJQsqaUBKTNV-1" source="O3eSGpDOSEKK-RNF7-H8-95" target="O3eSGpDOSEKK-RNF7-H8-57">
          <mxGeometry relative="1" as="geometry" />
        </mxCell>
        <mxCell id="O3eSGpDOSEKK-RNF7-H8-122" style="edgeStyle=orthogonalEdgeStyle;rounded=0;orthogonalLoop=1;jettySize=auto;html=1;exitX=0.5;exitY=1;exitDx=0;exitDy=0;elbow=vertical;" edge="1" parent="WIyWlLk6GJQsqaUBKTNV-1" source="O3eSGpDOSEKK-RNF7-H8-95" target="O3eSGpDOSEKK-RNF7-H8-46">
          <mxGeometry relative="1" as="geometry" />
        </mxCell>
        <mxCell id="O3eSGpDOSEKK-RNF7-H8-95" value="&lt;b&gt;poseen manager &amp;amp; archivos&lt;/b&gt;" style="rounded=0;whiteSpace=wrap;html=1;" vertex="1" parent="WIyWlLk6GJQsqaUBKTNV-1">
          <mxGeometry x="290" y="50" width="156" height="40" as="geometry" />
        </mxCell>
        <mxCell id="O3eSGpDOSEKK-RNF7-H8-101" style="edgeStyle=orthogonalEdgeStyle;rounded=0;orthogonalLoop=1;jettySize=auto;html=1;exitX=0.5;exitY=0;exitDx=0;exitDy=0;entryX=1;entryY=0.082;entryDx=0;entryDy=0;entryPerimeter=0;elbow=vertical;fillColor=#dae8fc;strokeColor=#6c8ebf;strokeWidth=3;" edge="1" parent="WIyWlLk6GJQsqaUBKTNV-1" source="O3eSGpDOSEKK-RNF7-H8-80" target="O3eSGpDOSEKK-RNF7-H8-70">
          <mxGeometry relative="1" as="geometry">
            <Array as="points">
              <mxPoint x="520" y="120" />
              <mxPoint x="220" y="120" />
              <mxPoint x="220" y="428" />
            </Array>
          </mxGeometry>
        </mxCell>
        <mxCell id="O3eSGpDOSEKK-RNF7-H8-102" style="edgeStyle=orthogonalEdgeStyle;rounded=0;orthogonalLoop=1;jettySize=auto;html=1;exitX=0.5;exitY=0;exitDx=0;exitDy=0;entryX=1;entryY=0.086;entryDx=0;entryDy=0;entryPerimeter=0;elbow=vertical;fillColor=#dae8fc;strokeColor=#6c8ebf;strokeWidth=3;" edge="1" parent="WIyWlLk6GJQsqaUBKTNV-1" source="O3eSGpDOSEKK-RNF7-H8-86" target="O3eSGpDOSEKK-RNF7-H8-70">
          <mxGeometry relative="1" as="geometry">
            <Array as="points">
              <mxPoint x="334" y="160" />
              <mxPoint x="240" y="160" />
              <mxPoint x="240" y="429" />
            </Array>
          </mxGeometry>
        </mxCell>
        <mxCell id="O3eSGpDOSEKK-RNF7-H8-107" style="edgeStyle=none;rounded=0;orthogonalLoop=1;jettySize=auto;html=1;exitX=0.5;exitY=1;exitDx=0;exitDy=0;entryX=0.438;entryY=0;entryDx=0;entryDy=0;entryPerimeter=0;elbow=vertical;" edge="1" parent="WIyWlLk6GJQsqaUBKTNV-1" source="O3eSGpDOSEKK-RNF7-H8-92" target="O3eSGpDOSEKK-RNF7-H8-7">
          <mxGeometry relative="1" as="geometry" />
        </mxCell>
        <mxCell id="O3eSGpDOSEKK-RNF7-H8-111" style="edgeStyle=none;rounded=0;orthogonalLoop=1;jettySize=auto;html=1;entryX=0.5;entryY=0;entryDx=0;entryDy=0;elbow=vertical;" edge="1" parent="WIyWlLk6GJQsqaUBKTNV-1" source="O3eSGpDOSEKK-RNF7-H8-24" target="O3eSGpDOSEKK-RNF7-H8-24">
          <mxGeometry relative="1" as="geometry" />
        </mxCell>
        <mxCell id="O3eSGpDOSEKK-RNF7-H8-161" style="edgeStyle=none;rounded=0;orthogonalLoop=1;jettySize=auto;html=1;exitX=0.5;exitY=1;exitDx=0;exitDy=0;entryX=0.5;entryY=0;entryDx=0;entryDy=0;elbow=vertical;" edge="1" parent="WIyWlLk6GJQsqaUBKTNV-1" source="O3eSGpDOSEKK-RNF7-H8-123" target="O3eSGpDOSEKK-RNF7-H8-147">
          <mxGeometry relative="1" as="geometry" />
        </mxCell>
        <mxCell id="O3eSGpDOSEKK-RNF7-H8-123" value="  ClienteManager           " style="swimlane;fontStyle=0;align=center;verticalAlign=top;childLayout=stackLayout;horizontal=1;startSize=26;horizontalStack=0;resizeParent=1;resizeLast=0;collapsible=1;marginBottom=0;rounded=0;shadow=0;strokeWidth=1;" vertex="1" parent="WIyWlLk6GJQsqaUBKTNV-1">
          <mxGeometry x="260" y="370" width="160" height="160" as="geometry">
            <mxRectangle x="550" y="140" width="160" height="26" as="alternateBounds" />
          </mxGeometry>
        </mxCell>
        <mxCell id="O3eSGpDOSEKK-RNF7-H8-124" value="clienteArchivo" style="text;align=left;verticalAlign=top;spacingLeft=4;spacingRight=4;overflow=hidden;rotatable=0;points=[[0,0.5],[1,0.5]];portConstraint=eastwest;rounded=0;shadow=0;html=0;" vertex="1" parent="O3eSGpDOSEKK-RNF7-H8-123">
          <mxGeometry y="26" width="160" height="24" as="geometry" />
        </mxCell>
        <mxCell id="O3eSGpDOSEKK-RNF7-H8-126" value="" style="line;html=1;strokeWidth=1;align=left;verticalAlign=middle;spacingTop=-1;spacingLeft=3;spacingRight=3;rotatable=0;labelPosition=right;points=[];portConstraint=eastwest;" vertex="1" parent="O3eSGpDOSEKK-RNF7-H8-123">
          <mxGeometry y="50" width="160" height="28" as="geometry" />
        </mxCell>
        <mxCell id="O3eSGpDOSEKK-RNF7-H8-125" value="menu()Â  Â  Â  Â  Â &#xa;" style="text;align=left;verticalAlign=top;spacingLeft=4;spacingRight=4;overflow=hidden;rotatable=0;points=[[0,0.5],[1,0.5]];portConstraint=eastwest;rounded=0;shadow=0;html=0;" vertex="1" parent="O3eSGpDOSEKK-RNF7-H8-123">
          <mxGeometry y="78" width="160" height="26" as="geometry" />
        </mxCell>
        <mxCell id="O3eSGpDOSEKK-RNF7-H8-127" value="MÃ©todos paraÂ  Â &#xa;" style="text;align=left;verticalAlign=top;spacingLeft=4;spacingRight=4;overflow=hidden;rotatable=0;points=[[0,0.5],[1,0.5]];portConstraint=eastwest;" vertex="1" parent="O3eSGpDOSEKK-RNF7-H8-123">
          <mxGeometry y="104" width="160" height="20" as="geometry" />
        </mxCell>
        <mxCell id="O3eSGpDOSEKK-RNF7-H8-128" value="gestiÃ³n deÂ clientesÂ " style="text;align=left;verticalAlign=top;spacingLeft=4;spacingRight=4;overflow=hidden;rotatable=0;points=[[0,0.5],[1,0.5]];portConstraint=eastwest;" vertex="1" parent="O3eSGpDOSEKK-RNF7-H8-123">
          <mxGeometry y="124" width="160" height="20" as="geometry" />
        </mxCell>
        <mxCell id="O3eSGpDOSEKK-RNF7-H8-163" style="edgeStyle=none;rounded=0;orthogonalLoop=1;jettySize=auto;html=1;exitX=0.5;exitY=1;exitDx=0;exitDy=0;entryX=0.5;entryY=0;entryDx=0;entryDy=0;elbow=vertical;" edge="1" parent="WIyWlLk6GJQsqaUBKTNV-1" source="O3eSGpDOSEKK-RNF7-H8-129" target="O3eSGpDOSEKK-RNF7-H8-153">
          <mxGeometry relative="1" as="geometry" />
        </mxCell>
        <mxCell id="O3eSGpDOSEKK-RNF7-H8-129" value="  MascotaManager           " style="swimlane;fontStyle=0;align=center;verticalAlign=top;childLayout=stackLayout;horizontal=1;startSize=26;horizontalStack=0;resizeParent=1;resizeLast=0;collapsible=1;marginBottom=0;rounded=0;shadow=0;strokeWidth=1;" vertex="1" parent="WIyWlLk6GJQsqaUBKTNV-1">
          <mxGeometry x="440" y="370" width="160" height="160" as="geometry">
            <mxRectangle x="550" y="140" width="160" height="26" as="alternateBounds" />
          </mxGeometry>
        </mxCell>
        <mxCell id="O3eSGpDOSEKK-RNF7-H8-130" value="veterinarioArchivo&#xa;" style="text;align=left;verticalAlign=top;spacingLeft=4;spacingRight=4;overflow=hidden;rotatable=0;points=[[0,0.5],[1,0.5]];portConstraint=eastwest;rounded=0;shadow=0;html=0;" vertex="1" parent="O3eSGpDOSEKK-RNF7-H8-129">
          <mxGeometry y="26" width="160" height="24" as="geometry" />
        </mxCell>
        <mxCell id="O3eSGpDOSEKK-RNF7-H8-131" value="" style="line;html=1;strokeWidth=1;align=left;verticalAlign=middle;spacingTop=-1;spacingLeft=3;spacingRight=3;rotatable=0;labelPosition=right;points=[];portConstraint=eastwest;" vertex="1" parent="O3eSGpDOSEKK-RNF7-H8-129">
          <mxGeometry y="50" width="160" height="28" as="geometry" />
        </mxCell>
        <mxCell id="O3eSGpDOSEKK-RNF7-H8-132" value="menu()Â  Â  Â  Â  Â &#xa;" style="text;align=left;verticalAlign=top;spacingLeft=4;spacingRight=4;overflow=hidden;rotatable=0;points=[[0,0.5],[1,0.5]];portConstraint=eastwest;rounded=0;shadow=0;html=0;" vertex="1" parent="O3eSGpDOSEKK-RNF7-H8-129">
          <mxGeometry y="78" width="160" height="26" as="geometry" />
        </mxCell>
        <mxCell id="O3eSGpDOSEKK-RNF7-H8-133" value="MÃ©todos paraÂ  Â &#xa;" style="text;align=left;verticalAlign=top;spacingLeft=4;spacingRight=4;overflow=hidden;rotatable=0;points=[[0,0.5],[1,0.5]];portConstraint=eastwest;" vertex="1" parent="O3eSGpDOSEKK-RNF7-H8-129">
          <mxGeometry y="104" width="160" height="20" as="geometry" />
        </mxCell>
        <mxCell id="O3eSGpDOSEKK-RNF7-H8-134" value="gestiÃ³n de veterinarios&#xa;" style="text;align=left;verticalAlign=top;spacingLeft=4;spacingRight=4;overflow=hidden;rotatable=0;points=[[0,0.5],[1,0.5]];portConstraint=eastwest;" vertex="1" parent="O3eSGpDOSEKK-RNF7-H8-129">
          <mxGeometry y="124" width="160" height="20" as="geometry" />
        </mxCell>
        <mxCell id="O3eSGpDOSEKK-RNF7-H8-165" style="edgeStyle=none;rounded=0;orthogonalLoop=1;jettySize=auto;html=1;exitX=0.5;exitY=1;exitDx=0;exitDy=0;entryX=0.5;entryY=0;entryDx=0;entryDy=0;elbow=vertical;" edge="1" parent="WIyWlLk6GJQsqaUBKTNV-1" source="O3eSGpDOSEKK-RNF7-H8-135" target="O3eSGpDOSEKK-RNF7-H8-155">
          <mxGeometry relative="1" as="geometry" />
        </mxCell>
        <mxCell id="O3eSGpDOSEKK-RNF7-H8-135" value="  MascotaManager           " style="swimlane;fontStyle=0;align=center;verticalAlign=top;childLayout=stackLayout;horizontal=1;startSize=26;horizontalStack=0;resizeParent=1;resizeLast=0;collapsible=1;marginBottom=0;rounded=0;shadow=0;strokeWidth=1;" vertex="1" parent="WIyWlLk6GJQsqaUBKTNV-1">
          <mxGeometry x="630" y="470" width="160" height="160" as="geometry">
            <mxRectangle x="550" y="140" width="160" height="26" as="alternateBounds" />
          </mxGeometry>
        </mxCell>
        <mxCell id="O3eSGpDOSEKK-RNF7-H8-136" value="mascotaArchivoÂ &#xa;" style="text;align=left;verticalAlign=top;spacingLeft=4;spacingRight=4;overflow=hidden;rotatable=0;points=[[0,0.5],[1,0.5]];portConstraint=eastwest;rounded=0;shadow=0;html=0;" vertex="1" parent="O3eSGpDOSEKK-RNF7-H8-135">
          <mxGeometry y="26" width="160" height="24" as="geometry" />
        </mxCell>
        <mxCell id="O3eSGpDOSEKK-RNF7-H8-137" value="" style="line;html=1;strokeWidth=1;align=left;verticalAlign=middle;spacingTop=-1;spacingLeft=3;spacingRight=3;rotatable=0;labelPosition=right;points=[];portConstraint=eastwest;" vertex="1" parent="O3eSGpDOSEKK-RNF7-H8-135">
          <mxGeometry y="50" width="160" height="28" as="geometry" />
        </mxCell>
        <mxCell id="O3eSGpDOSEKK-RNF7-H8-138" value="menu()Â  Â  Â  Â  Â &#xa;" style="text;align=left;verticalAlign=top;spacingLeft=4;spacingRight=4;overflow=hidden;rotatable=0;points=[[0,0.5],[1,0.5]];portConstraint=eastwest;rounded=0;shadow=0;html=0;" vertex="1" parent="O3eSGpDOSEKK-RNF7-H8-135">
          <mxGeometry y="78" width="160" height="26" as="geometry" />
        </mxCell>
        <mxCell id="O3eSGpDOSEKK-RNF7-H8-139" value="MÃ©todos paraÂ  Â &#xa;" style="text;align=left;verticalAlign=top;spacingLeft=4;spacingRight=4;overflow=hidden;rotatable=0;points=[[0,0.5],[1,0.5]];portConstraint=eastwest;" vertex="1" parent="O3eSGpDOSEKK-RNF7-H8-135">
          <mxGeometry y="104" width="160" height="20" as="geometry" />
        </mxCell>
        <mxCell id="O3eSGpDOSEKK-RNF7-H8-140" value="gestiÃ³n de mascotas&#xa;" style="text;align=left;verticalAlign=top;spacingLeft=4;spacingRight=4;overflow=hidden;rotatable=0;points=[[0,0.5],[1,0.5]];portConstraint=eastwest;" vertex="1" parent="O3eSGpDOSEKK-RNF7-H8-135">
          <mxGeometry y="124" width="160" height="20" as="geometry" />
        </mxCell>
        <mxCell id="O3eSGpDOSEKK-RNF7-H8-168" style="edgeStyle=none;rounded=0;orthogonalLoop=1;jettySize=auto;html=1;exitX=0.5;exitY=1;exitDx=0;exitDy=0;entryX=0.5;entryY=0;entryDx=0;entryDy=0;elbow=vertical;" edge="1" parent="WIyWlLk6GJQsqaUBKTNV-1" source="O3eSGpDOSEKK-RNF7-H8-141" target="O3eSGpDOSEKK-RNF7-H8-157">
          <mxGeometry relative="1" as="geometry" />
        </mxCell>
        <mxCell id="O3eSGpDOSEKK-RNF7-H8-141" value="  ConsultaManager             " style="swimlane;fontStyle=0;align=center;verticalAlign=top;childLayout=stackLayout;horizontal=1;startSize=26;horizontalStack=0;resizeParent=1;resizeLast=0;collapsible=1;marginBottom=0;rounded=0;shadow=0;strokeWidth=1;" vertex="1" parent="WIyWlLk6GJQsqaUBKTNV-1">
          <mxGeometry x="827" y="520" width="160" height="160" as="geometry">
            <mxRectangle x="550" y="140" width="160" height="26" as="alternateBounds" />
          </mxGeometry>
        </mxCell>
        <mxCell id="O3eSGpDOSEKK-RNF7-H8-142" value="consultaArchivo&#xa;" style="text;align=left;verticalAlign=top;spacingLeft=4;spacingRight=4;overflow=hidden;rotatable=0;points=[[0,0.5],[1,0.5]];portConstraint=eastwest;rounded=0;shadow=0;html=0;" vertex="1" parent="O3eSGpDOSEKK-RNF7-H8-141">
          <mxGeometry y="26" width="160" height="24" as="geometry" />
        </mxCell>
        <mxCell id="O3eSGpDOSEKK-RNF7-H8-143" value="" style="line;html=1;strokeWidth=1;align=left;verticalAlign=middle;spacingTop=-1;spacingLeft=3;spacingRight=3;rotatable=0;labelPosition=right;points=[];portConstraint=eastwest;" vertex="1" parent="O3eSGpDOSEKK-RNF7-H8-141">
          <mxGeometry y="50" width="160" height="28" as="geometry" />
        </mxCell>
        <mxCell id="O3eSGpDOSEKK-RNF7-H8-144" value="menu()Â  Â  Â  Â  Â &#xa;" style="text;align=left;verticalAlign=top;spacingLeft=4;spacingRight=4;overflow=hidden;rotatable=0;points=[[0,0.5],[1,0.5]];portConstraint=eastwest;rounded=0;shadow=0;html=0;" vertex="1" parent="O3eSGpDOSEKK-RNF7-H8-141">
          <mxGeometry y="78" width="160" height="26" as="geometry" />
        </mxCell>
        <mxCell id="O3eSGpDOSEKK-RNF7-H8-145" value="MÃ©todos paraÂ  Â &#xa;" style="text;align=left;verticalAlign=top;spacingLeft=4;spacingRight=4;overflow=hidden;rotatable=0;points=[[0,0.5],[1,0.5]];portConstraint=eastwest;" vertex="1" parent="O3eSGpDOSEKK-RNF7-H8-141">
          <mxGeometry y="104" width="160" height="20" as="geometry" />
        </mxCell>
        <mxCell id="O3eSGpDOSEKK-RNF7-H8-146" value="gestiÃ³n de consultas&#xa;Â   &#xa;" style="text;align=left;verticalAlign=top;spacingLeft=4;spacingRight=4;overflow=hidden;rotatable=0;points=[[0,0.5],[1,0.5]];portConstraint=eastwest;" vertex="1" parent="O3eSGpDOSEKK-RNF7-H8-141">
          <mxGeometry y="124" width="160" height="20" as="geometry" />
        </mxCell>
        <mxCell id="O3eSGpDOSEKK-RNF7-H8-169" style="edgeStyle=orthogonalEdgeStyle;rounded=0;orthogonalLoop=1;jettySize=auto;html=1;exitX=0.5;exitY=1;exitDx=0;exitDy=0;entryX=1;entryY=0.5;entryDx=0;entryDy=0;elbow=vertical;fillColor=#dae8fc;strokeColor=#6c8ebf;strokeWidth=3;" edge="1" parent="WIyWlLk6GJQsqaUBKTNV-1" source="O3eSGpDOSEKK-RNF7-H8-147" target="O3eSGpDOSEKK-RNF7-H8-35">
          <mxGeometry relative="1" as="geometry" />
        </mxCell>
        <mxCell id="O3eSGpDOSEKK-RNF7-H8-147" value="   ClienteArchivo           " style="swimlane;fontStyle=0;align=center;verticalAlign=top;childLayout=stackLayout;horizontal=1;startSize=26;horizontalStack=0;resizeParent=1;resizeLast=0;collapsible=1;marginBottom=0;rounded=0;shadow=0;strokeWidth=1;" vertex="1" parent="WIyWlLk6GJQsqaUBKTNV-1">
          <mxGeometry x="260" y="560" width="160" height="82" as="geometry">
            <mxRectangle x="550" y="140" width="160" height="26" as="alternateBounds" />
          </mxGeometry>
        </mxCell>
        <mxCell id="O3eSGpDOSEKK-RNF7-H8-152" value="MÃ©todos para&#xa;gestiÃ³n de archivos deÂ &#xa;clientes       " style="text;align=left;verticalAlign=top;spacingLeft=4;spacingRight=4;overflow=hidden;rotatable=0;points=[[0,0.5],[1,0.5]];portConstraint=eastwest;" vertex="1" parent="O3eSGpDOSEKK-RNF7-H8-147">
          <mxGeometry y="26" width="160" height="56" as="geometry" />
        </mxCell>
        <mxCell id="O3eSGpDOSEKK-RNF7-H8-153" value="   VeterinarioArchivo           " style="swimlane;fontStyle=0;align=center;verticalAlign=top;childLayout=stackLayout;horizontal=1;startSize=26;horizontalStack=0;resizeParent=1;resizeLast=0;collapsible=1;marginBottom=0;rounded=0;shadow=0;strokeWidth=1;" vertex="1" parent="WIyWlLk6GJQsqaUBKTNV-1">
          <mxGeometry x="440" y="559" width="160" height="82" as="geometry">
            <mxRectangle x="550" y="140" width="160" height="26" as="alternateBounds" />
          </mxGeometry>
        </mxCell>
        <mxCell id="O3eSGpDOSEKK-RNF7-H8-154" value="MÃ©todos para&#xa;gestiÃ³n de archivos deÂ &#xa;veterinarios " style="text;align=left;verticalAlign=top;spacingLeft=4;spacingRight=4;overflow=hidden;rotatable=0;points=[[0,0.5],[1,0.5]];portConstraint=eastwest;" vertex="1" parent="O3eSGpDOSEKK-RNF7-H8-153">
          <mxGeometry y="26" width="160" height="56" as="geometry" />
        </mxCell>
        <mxCell id="O3eSGpDOSEKK-RNF7-H8-172" style="edgeStyle=orthogonalEdgeStyle;rounded=0;orthogonalLoop=1;jettySize=auto;html=1;exitX=0.5;exitY=1;exitDx=0;exitDy=0;entryX=1;entryY=0.5;entryDx=0;entryDy=0;elbow=vertical;fillColor=#dae8fc;strokeColor=#6c8ebf;strokeWidth=3;" edge="1" parent="WIyWlLk6GJQsqaUBKTNV-1" source="O3eSGpDOSEKK-RNF7-H8-155" target="O3eSGpDOSEKK-RNF7-H8-35">
          <mxGeometry relative="1" as="geometry">
            <Array as="points">
              <mxPoint x="710" y="740" />
            </Array>
          </mxGeometry>
        </mxCell>
        <mxCell id="O3eSGpDOSEKK-RNF7-H8-155" value="   MascotaArchivo             " style="swimlane;fontStyle=0;align=center;verticalAlign=top;childLayout=stackLayout;horizontal=1;startSize=26;horizontalStack=0;resizeParent=1;resizeLast=0;collapsible=1;marginBottom=0;rounded=0;shadow=0;strokeWidth=1;" vertex="1" parent="WIyWlLk6GJQsqaUBKTNV-1">
          <mxGeometry x="630" y="660" width="160" height="82" as="geometry">
            <mxRectangle x="550" y="140" width="160" height="26" as="alternateBounds" />
          </mxGeometry>
        </mxCell>
        <mxCell id="O3eSGpDOSEKK-RNF7-H8-156" value="MÃ©todos para&#xa;gestiÃ³n de archivos deÂ &#xa;mascotas" style="text;align=left;verticalAlign=top;spacingLeft=4;spacingRight=4;overflow=hidden;rotatable=0;points=[[0,0.5],[1,0.5]];portConstraint=eastwest;" vertex="1" parent="O3eSGpDOSEKK-RNF7-H8-155">
          <mxGeometry y="26" width="160" height="56" as="geometry" />
        </mxCell>
        <mxCell id="O3eSGpDOSEKK-RNF7-H8-157" value="   ConsultaArchivo            " style="swimlane;fontStyle=0;align=center;verticalAlign=top;childLayout=stackLayout;horizontal=1;startSize=26;horizontalStack=0;resizeParent=1;resizeLast=0;collapsible=1;marginBottom=0;rounded=0;shadow=0;strokeWidth=1;" vertex="1" parent="WIyWlLk6GJQsqaUBKTNV-1">
          <mxGeometry x="827" y="710" width="160" height="82" as="geometry">
            <mxRectangle x="550" y="140" width="160" height="26" as="alternateBounds" />
          </mxGeometry>
        </mxCell>
        <mxCell id="O3eSGpDOSEKK-RNF7-H8-158" value="MÃ©todos para&#xa;gestiÃ³n de archivos deÂ &#xa;consultas" style="text;align=left;verticalAlign=top;spacingLeft=4;spacingRight=4;overflow=hidden;rotatable=0;points=[[0,0.5],[1,0.5]];portConstraint=eastwest;" vertex="1" parent="O3eSGpDOSEKK-RNF7-H8-157">
          <mxGeometry y="26" width="160" height="56" as="geometry" />
        </mxCell>
        <mxCell id="O3eSGpDOSEKK-RNF7-H8-160" style="edgeStyle=none;rounded=0;orthogonalLoop=1;jettySize=auto;html=1;exitX=0.5;exitY=1;exitDx=0;exitDy=0;entryX=0.463;entryY=-0.025;entryDx=0;entryDy=0;entryPerimeter=0;elbow=vertical;" edge="1" parent="WIyWlLk6GJQsqaUBKTNV-1" source="O3eSGpDOSEKK-RNF7-H8-86" target="O3eSGpDOSEKK-RNF7-H8-123">
          <mxGeometry relative="1" as="geometry" />
        </mxCell>
        <mxCell id="O3eSGpDOSEKK-RNF7-H8-167" style="edgeStyle=none;rounded=0;orthogonalLoop=1;jettySize=auto;html=1;exitX=0.5;exitY=1;exitDx=0;exitDy=0;entryX=0.463;entryY=0;entryDx=0;entryDy=0;entryPerimeter=0;elbow=vertical;" edge="1" parent="WIyWlLk6GJQsqaUBKTNV-1" source="O3eSGpDOSEKK-RNF7-H8-57" target="O3eSGpDOSEKK-RNF7-H8-141">
          <mxGeometry relative="1" as="geometry" />
        </mxCell>
        <mxCell id="O3eSGpDOSEKK-RNF7-H8-170" style="edgeStyle=orthogonalEdgeStyle;rounded=0;orthogonalLoop=1;jettySize=auto;html=1;exitX=0.5;exitY=1;exitDx=0;exitDy=0;elbow=vertical;fillColor=#dae8fc;strokeColor=#6c8ebf;strokeWidth=3;" edge="1" parent="WIyWlLk6GJQsqaUBKTNV-1" source="O3eSGpDOSEKK-RNF7-H8-153">
          <mxGeometry relative="1" as="geometry">
            <mxPoint x="200" y="740" as="targetPoint" />
            <Array as="points">
              <mxPoint x="520" y="740" />
            </Array>
          </mxGeometry>
        </mxCell>
        <mxCell id="O3eSGpDOSEKK-RNF7-H8-173" style="edgeStyle=orthogonalEdgeStyle;rounded=0;orthogonalLoop=1;jettySize=auto;html=1;exitX=0.5;exitY=1;exitDx=0;exitDy=0;entryX=0.975;entryY=1.077;entryDx=0;entryDy=0;entryPerimeter=0;elbow=vertical;fillColor=#dae8fc;strokeColor=#6c8ebf;strokeWidth=3;" edge="1" parent="WIyWlLk6GJQsqaUBKTNV-1" source="O3eSGpDOSEKK-RNF7-H8-157" target="O3eSGpDOSEKK-RNF7-H8-37">
          <mxGeometry relative="1" as="geometry">
            <Array as="points">
              <mxPoint x="907" y="812" />
              <mxPoint x="520" y="812" />
              <mxPoint x="520" y="740" />
            </Array>
          </mxGeometry>
        </mxCell>
      </root>
    </mxGraphModel>
  </diagram>
</mxfile>
